<svg width="82" height="91" viewBox="0 0 82 91" fill="none" xmlns="http://www.w3.org/2000/svg">
<g clip-path="url(#clip0_52_854)">
<path d="M56.61 68.54L39.81 58.84L23 68.54V72.54L39.8 82.24L56.61 72.54" fill="#F04B38"/>
<path d="M39.8102 26.12H39.8002C39.1706 26.12 38.6602 26.6304 38.6602 27.26V69.79C38.6602 70.4196 39.1706 70.93 39.8002 70.93H39.8102C40.4398 70.93 40.9502 70.4196 40.9502 69.79V27.26C40.9502 26.6304 40.4398 26.12 39.8102 26.12Z" fill="#808080"/>
<path d="M35.86 6.34998L31.29 8.97998V19.52L35.86 27.43L42.7 31.39L49.55 28.75V19.53L44.99 11.62L35.86 6.34998Z" fill="#F04B38" stroke="white" stroke-width="0.6" stroke-miterlimit="10"/>
<path d="M36.3956 13.6845L36.2971 14.5711C36.0752 14.2389 35.8668 14.0191 35.6717 13.9118C35.4613 13.7959 35.2799 13.7857 35.1277 13.8812C34.9764 13.9678 34.8859 14.1451 34.8562 14.413C34.8299 14.6489 34.8549 14.8774 34.9311 15.0985C34.9699 15.2156 35.0365 15.3759 35.131 15.5793C35.2281 15.7841 35.354 16.0357 35.5088 16.3341C35.793 16.8892 35.979 17.336 36.0666 17.6747C36.1552 18.0046 36.1782 18.3618 36.1355 18.7462C36.0776 19.2674 35.9002 19.6255 35.6035 19.8206C35.3077 20.007 34.957 19.9885 34.5515 19.7653C34.2102 19.5775 33.9307 19.3108 33.713 18.9655L33.813 18.0658C34.0717 18.4584 34.3178 18.719 34.5514 18.8476C34.7695 18.9676 34.9493 18.9801 35.0906 18.8848C35.2322 18.7866 35.3187 18.5963 35.3501 18.3139C35.3773 18.0693 35.3542 17.8233 35.2809 17.576C35.2425 17.456 35.1863 17.3122 35.1123 17.1448C35.0386 16.9745 34.9446 16.7791 34.8302 16.5585C34.6527 16.2198 34.5069 15.9264 34.3928 15.6782C34.2788 15.43 34.197 15.2228 34.1473 15.0564C34.0526 14.7324 34.0269 14.3753 34.0703 13.9851C34.1288 13.4581 34.2959 13.1066 34.5715 12.9308C34.8499 12.7534 35.1945 12.7778 35.6051 13.0038C35.89 13.1606 36.1535 13.3875 36.3956 13.6845ZM36.9963 13.8668L39.6027 15.3013L39.5144 16.0962L38.6173 15.6025L37.9564 21.5513L37.171 21.119L37.832 15.1703L36.908 14.6617L36.9963 13.8668ZM42.6861 20.7525C42.5538 21.9435 42.343 22.725 42.0538 23.0973C41.7646 23.4696 41.3454 23.5046 40.7961 23.2023C40.2186 22.8844 39.8417 22.3912 39.6654 21.7226C39.4904 21.067 39.4777 20.0666 39.6272 18.7213C39.7604 17.5217 39.9703 16.7365 40.2566 16.3657C40.5458 15.9934 40.9689 15.9605 41.5258 16.2671C42.0237 16.5411 42.3718 16.9382 42.5701 17.4582C42.7004 17.805 42.775 18.2369 42.7938 18.754C42.8165 19.2361 42.7806 19.9023 42.6861 20.7525ZM41.8361 20.3867C41.9659 19.2191 42.0057 18.4191 41.9557 17.9868C41.906 17.5516 41.7387 17.2556 41.4538 17.0988C41.1689 16.942 40.9594 17.0136 40.8253 17.3137C40.6935 17.6181 40.568 18.306 40.4489 19.3776C40.3393 20.3646 40.312 21.0757 40.3671 21.5109C40.4271 21.927 40.5944 22.2107 40.8691 22.3618C41.1385 22.5102 41.3421 22.443 41.4797 22.1603C41.617 21.8805 41.7358 21.2893 41.8361 20.3867ZM43.8761 17.6534L44.931 18.234C45.4392 18.5137 45.7926 18.8627 45.9912 19.281C46.1896 19.7022 46.2533 20.2317 46.1824 20.8693C46.0828 21.7662 45.7861 22.2178 45.2925 22.2241C45.0456 22.215 44.7015 22.0889 44.26 21.8459L43.9276 24.8378L43.1268 24.397L43.8761 17.6534ZM44.3464 21.0685C44.6775 21.2507 44.9144 21.3007 45.0569 21.2185C45.2024 21.1348 45.297 20.8964 45.3407 20.5034C45.3853 20.1015 45.3564 19.7735 45.2539 19.5194C45.1514 19.2652 44.968 19.0654 44.7036 18.9199L44.592 18.8584L44.3464 21.0685Z" fill="white"/>
<path opacity="0.8" d="M23 68.54V72.54L39.8 82.24V78.68L23 68.54Z" fill="#7C7C7C"/>
<path d="M56.6098 68.54V72.54L39.7998 82.24V78.68L56.6098 68.54Z" fill="#9E9E9E"/>
</g>
<defs>
<clipPath id="clip0_52_854">
<rect width="33.61" height="76.24" fill="white" transform="translate(23 6)"/>
</clipPath>
</defs>
</svg>
