<svg xmlns="http://www.w3.org/2000/svg" viewBox="0 0 262.35 183.47"><defs><style>.cls-1{fill:#fff;}</style></defs><g id="Layer_2" data-name="Layer 2"><g id="Layer_36" data-name="Layer 36"><path class="cls-1" d="M258.37,68.43a34.45,34.45,0,0,0-9.5-14.78l-9.29-7.18a45.66,45.66,0,0,0-23.19-6.27l-12.21,1.64a46,46,0,0,0-14.54,6.95l-2.65.05a46.76,46.76,0,0,0-1.63-11.71c-.25-1.13-.49-2.25-.73-3.38a34.75,34.75,0,0,0-8.23-15.62A34.68,34.68,0,0,0,163.52,6.3,34.29,34.29,0,0,0,146.44.85a34.89,34.89,0,0,0-18.31.82l-11,4.63a46.23,46.23,0,0,0-16.48,16.48l-2.55,6-9.66,3.06a46,46,0,0,0-30.84,28.3,35,35,0,0,0-11.7-1.48L33.72,60.34A34.58,34.58,0,0,0,18.1,68.56,23.07,23.07,0,0,0,9.86,76.8,34.53,34.53,0,0,0,1.64,92.42L0,104.63a45.82,45.82,0,0,0,6.27,23.18,63.49,63.49,0,0,0,12.14,16,114.18,114.18,0,0,0,11.82,9.35,34.88,34.88,0,0,0,4,2.57,89.21,89.21,0,0,0,18.64,7.67,40.6,40.6,0,0,0,4.22.9,160.18,160.18,0,0,0,16.51,2.1c7.1.38,14.39-1.09,21.32-2.14a64.64,64.64,0,0,0,10.87-2.68c4.36-1.46,8.66-3.13,12.91-4.94,2.74,2.25,5.65,4.34,8.48,6.44A29.79,29.79,0,0,0,130,165,77.65,77.65,0,0,0,144,171c2,1.54,4,3,6,4.44a14.48,14.48,0,0,0,1.81,1.19,51.25,51.25,0,0,0,25,6.8c2.61.07,3.91-.34,7.31-.79a70.52,70.52,0,0,0,7.25-1.08c7.76-1.86,16.43-7.27,21.87-13l7.18-9.3a45.22,45.22,0,0,0,4.87-11.37c1.29-4.52,1.86-5.9,2-13.34,0-.39,0-.78,0-1.17a42.75,42.75,0,0,0,8.8-4.31,114.41,114.41,0,0,0,10.82-8.42,20.18,20.18,0,0,0,1.94-2.09,34.51,34.51,0,0,0,9.5-14.78,34.62,34.62,0,0,0,3.95-17.7A34.61,34.61,0,0,0,258.37,68.43Z"/></g></g></svg>