<svg xmlns="http://www.w3.org/2000/svg" viewBox="0 0 226.4 148.92"><defs><style>.cls-1{fill:#fff;}</style></defs><g id="Layer_2" data-name="Layer 2"><g id="cloud05"><path class="cls-1" d="M225.62,69.76a36,36,0,0,0-55.18-22.53A35.06,35.06,0,0,0,129,20.65l-1.17.27a34.53,34.53,0,0,0-66.25,12.5,31.83,31.83,0,0,0-33.7,26.36c-.74.11-1.47.23-2.21.38A32.34,32.34,0,0,0,39,123.44c.93-.2,1.83-.44,2.72-.71a35.33,35.33,0,0,0,52.79,17,35,35,0,0,0,48.7-1.52A41.36,41.36,0,0,0,196,112.76c.62-.1,1.24-.21,1.87-.34A36,36,0,0,0,225.62,69.76Z"/></g></g></svg>