<svg xmlns="http://www.w3.org/2000/svg" viewBox="0 0 630.88 515.91"><defs><style>.cls-1{fill:#fff;}</style></defs><g id="Layer_2" data-name="Layer 2"><g id="Layer_36" data-name="Layer 36"><path class="cls-1" d="M626.82,290a113.38,113.38,0,0,0-29.18-50.08c-14.63-12.49-28.71-23-45-31.74a86.32,86.32,0,0,0-3.46-37L537.75,144a85.73,85.73,0,0,0-29.23-31.84,56.67,56.67,0,0,0-25-14.59,85.44,85.44,0,0,0-43.73-9.78L418.6,90.61a85.08,85.08,0,0,0-7.7-20.77,85.1,85.1,0,0,0-23.47-36.53A85.07,85.07,0,0,0,350.91,9.84,85.56,85.56,0,0,0,307.18.07L277,4.12a113.36,113.36,0,0,0-50.08,29.19q-8.88,11.49-17.75,23a112.68,112.68,0,0,0-15.34,51.88,84,84,0,0,0-27-5.7,86.07,86.07,0,0,0-45.26,2L94.47,115.93a85.87,85.87,0,0,0-31.85,29.24,56.71,56.71,0,0,0-14.59,25,85.42,85.42,0,0,0-9.78,43.73q2,15.09,4.06,30.17a113.87,113.87,0,0,0,14.86,32.58,86,86,0,0,0-12.36,9.41A85.84,85.84,0,0,0,15.58,318a84.56,84.56,0,0,0-13.47,42.2,86,86,0,0,0,2,45.26Q9.86,419,15.58,432.52A114.07,114.07,0,0,0,56.3,473.24l27.11,11.44a114.44,114.44,0,0,0,60.35,0q30.9-7,62.18-12.06a116.29,116.29,0,0,0,8.89,10,113.43,113.43,0,0,0,110.43,29.19c17.21-6.66,35.37-13.44,51.08-23.56,11.64-7.51,22.39-16.51,33.21-25.1a128.26,128.26,0,0,0,11.26-10.09c6.82-6.89,12.78-14.57,19-22,8.53.57,17,1.58,25.51,2.48,8.75.94,17.52,1.8,26.32,2a135.2,135.2,0,0,0,13.8-.33,383.09,383.09,0,0,0,42.12-5.66A113.53,113.53,0,0,0,626.82,290Z"/></g></g></svg>