<svg width="80" height="74" viewBox="0 0 80 74" fill="none" xmlns="http://www.w3.org/2000/svg">
<g clip-path="url(#clip0_48_418)">
<path d="M23.5017 0L79.9903 32.612V59.7952L56.2025 73.525L0.0297852 40.8044V13.6212L23.5017 0Z" fill="#7F7F7F"/>
<path d="M56.4888 73.525L0.306152 41.0907V13.6212L56.4888 46.3418V73.525Z" fill="#3F3F3F"/>
<path d="M79.9903 59.7952L56.4888 73.5249V46.3417L79.9903 32.6119V59.7952Z" fill="#9E9E9E"/>
<path d="M79.9903 32.612L23.5017 0L0.0297852 13.6212L56.4888 46.3418L79.9903 32.612Z" fill="#CECECE"/>
<path d="M7.19574 15.0722L4.71826 13.6311L23.5313 2.79333L76.2001 32.6613L73.6535 34.0728L23.5313 5.65577L7.19574 15.0722Z" fill="#9E9E9E"/>
<path d="M23.5312 2.79333L76.2 32.6613L73.6534 34.0728L23.5312 5.65577V2.79333Z" fill="#7F7F7F"/>
<path d="M23.5314 5.65576L73.6535 34.0728L56.4691 43.5879L7.1958 15.0722L23.5314 5.65576Z" fill="#F04B38"/>
<path d="M0.0297852 19.0993L56.4888 51.3757V48.8094L0.0297852 16.5231V19.0993Z" fill="#7F7F7F"/>
<path d="M0.0297852 24.5379L56.4888 56.913V54.3368L0.0297852 21.9617V24.5379Z" fill="#7F7F7F"/>
<path d="M0 29.8976L56.4688 62.3714V59.7952L0 27.3214V29.8976Z" fill="#7F7F7F"/>
<path d="M0.0297852 35.3362L56.4888 67.9482V65.372L0.0297852 32.76V35.3362Z" fill="#7F7F7F"/>
<path d="M0.0791016 40.765L56.4887 73.525V70.9587L0.0791016 38.1888V40.765Z" fill="#7F7F7F"/>
<path d="M79.9903 40.8439L56.4888 54.3171V51.3757L79.9903 38.1789V40.8439Z" fill="#7F7F7F"/>
<path d="M79.99 46.2134L56.4688 59.7952L56.4885 56.913L79.99 43.5583V46.2134Z" fill="#7F7F7F"/>
<path d="M79.9999 51.6521L56.4885 65.372L56.4688 62.3714L79.9999 48.9871V51.6521Z" fill="#7F7F7F"/>
<path d="M79.9899 57.4065L56.4884 70.9291L56.4785 67.9284L79.9998 54.7415L79.9899 57.4065Z" fill="#7F7F7F"/>
<path d="M79.9903 35.4053L56.4986 48.7797L56.4888 46.3417L80.0002 32.6119L79.9903 35.4053Z" fill="#7F7F7F"/>
<path opacity="0.8" d="M0.0297852 40.8044L56.4888 73.525V46.3418L0.0297852 13.6212V40.8044Z" fill="#7C7C7C"/>
</g>
<defs>
<clipPath id="clip0_48_418">
<rect width="80" height="73.525" fill="white"/>
</clipPath>
</defs>
</svg>
