<svg width="82" height="91" viewBox="0 0 82 91" fill="none" xmlns="http://www.w3.org/2000/svg">
<path d="M26.5911 75V46.3979L36.668 40.3948V69.1964L26.5911 75Z" fill="#D8D8D8"/>
<path d="M26.5913 46.398L6.52064 34.6911V63.4594L26.5913 75V46.398Z" fill="#C1C1C1"/>
<path d="M26.5911 46.398L36.668 40.3949L16.564 28.9208L6.52038 34.6911L26.5911 46.398Z" fill="#F04B38"/>
<path d="M0.999809 18.0953L15.2505 26.3932V31.0826L0.999809 22.6849V18.0953Z" fill="#878787"/>
<path d="M15.2008 26.3932L19.042 24.0984V28.7878L15.2008 31.0826V26.3932Z" fill="#727272"/>
<path d="M1 18.2948L4.8412 16L19.042 24.0984L15.2008 26.3932L1 18.2948Z" fill="#6D6D6D"/>
<path d="M24.7958 42.8227V26.4431L30.5825 26.3101V39.4969L24.7958 42.8227Z" fill="#E5E5E5"/>
<path d="M24.7954 26.4431L13.2884 23.0341V36.221L24.7954 42.8227V26.4431Z" fill="#CCCCCC"/>
<path d="M24.7958 29.7523L30.5825 26.31L19.0423 19.7249L13.2888 23.0341L24.7958 29.7523Z" fill="#F04B38"/>
<path d="M25.7935 32.0305L77.209 61.6136V66.3196L25.7935 36.6035V32.0305Z" fill="#D3D3D3"/>
<path d="M77.1588 61.6136L81 59.3188V64.0248L77.1588 66.3196V61.6136Z" fill="#727272"/>
<path d="M25.7932 32.0305L29.651 29.7357L81 59.3188L77.1588 61.6136L25.7932 32.0305Z" fill="#B2B2B2"/>
<path d="M31.1312 35.0902L32.8605 40.6942L36.0532 42.54L34.2241 36.8862L31.1312 35.0902Z" fill="black"/>
<path d="M36.868 38.3994L38.614 44.0034L41.8066 45.8492L39.9775 40.1953L36.868 38.3994Z" fill="black"/>
<path d="M42.4549 41.6254L44.1843 47.2128L47.377 49.0586L45.5478 43.4047L42.4549 41.6254Z" fill="black"/>
<path d="M48.1922 44.9346L49.9382 50.522L53.1309 52.3678L51.3017 46.7139L48.1922 44.9346Z" fill="black"/>
<path d="M53.7957 48.1772L55.5251 53.7646L58.7178 55.6104L56.8886 49.9566L53.7957 48.1772Z" fill="black"/>
<path d="M59.5491 51.4865L61.2785 57.0738L64.4712 58.9196L62.642 53.2658L59.5491 51.4865Z" fill="black"/>
<path d="M65.1697 54.7625L66.8991 60.3665L70.0918 62.2123L68.2627 56.5584L65.1697 54.7625Z" fill="black"/>
<path d="M70.9065 58.0716L72.6525 63.6756L75.8452 65.5214L74.0161 59.8675L70.9065 58.0716Z" fill="black"/>
<path d="M12.9894 38.6155L16.2486 69.2297L20.123 71.458L16.8306 40.8438L12.9894 38.6155Z" fill="#CCCCCC"/>
</svg>
