<?xml version="1.0" encoding="UTF-8"?><svg id="Layer_2" xmlns="http://www.w3.org/2000/svg" xmlns:xlink="http://www.w3.org/1999/xlink" viewBox="0 0 1697.04 1697.04"><defs><style>.cls-1,.cls-2{fill:none;}.cls-3{clip-path:url(#clippath);}.cls-4{fill:#f4a47d;}.cls-5{fill:#fef4f3;}.cls-6{fill:#73b644;}.cls-7{fill:#df8a64;}.cls-8{fill:#c82027;}.cls-9{fill:#d47b56;}.cls-10{fill:#e31f27;}.cls-11{fill:#c86e47;}.cls-12{fill:#110b37;}.cls-13{fill:#0d7a3e;}.cls-14{fill:#573c10;}.cls-15{fill:#9290c6;stroke:#25479e;stroke-width:3px;}.cls-15,.cls-2{stroke-miterlimit:10;}.cls-2{stroke:#fef4f3;stroke-width:7px;}</style><clipPath id="clippath"><path class="cls-1" d="M0,848.53c0,468.62,379.89,848.51,848.53,848.51s848.51-379.89,848.51-848.51S1317.15,0,848.53,0,0,379.89,0,848.53"/></clipPath></defs><g id="jennifer"><g class="cls-3"><circle class="cls-6" cx="848.52" cy="848.52" r="848.52"/><path class="cls-14" d="M255.16,959.55c0,31.34-30.26,64.61-27.37,94.96,2.97,31.03,38.68,54.29,44.48,84.05,5.9,30.27-17.15,71.74-8.49,100.46,8.75,29.07,47.86,40.83,59.24,68.09,11.46,27.46-3,74.7,10.92,100.08,13.99,25.48,54.18,25.1,70.44,48.23,16.28,23.15,11.17,73.39,29.54,93.92,18.34,20.49,57.32,8.07,77.53,25.69,20.14,17.55,24.68,67.9,46.46,82.34,21.62,14.33,57.09-9.47,80.15,1.56,22.79,10.91,36.8,58.4,60.81,65.83,23.62,7.31,53.49-26.55,78.1-22.82,24.08,3.65,46.7,45.54,71.56,45.54s47.47-41.89,71.55-45.54c24.6-3.73,54.47,30.13,78.09,22.82,24.02-7.43,38.02-54.92,60.82-65.83,23.06-11.03,58.53,12.77,80.16-1.56,21.79-14.45,26.33-64.78,46.46-82.34,20.22-17.62,59.17-5.2,77.53-25.7,18.37-20.52,13.26-70.75,29.54-93.91,16.27-23.13,56.46-22.75,70.44-48.23,13.92-25.37-.54-72.61,10.93-100.08,11.37-27.26,50.47-39.01,59.23-68.07,8.65-28.73-14.39-70.2-8.5-100.47,5.81-29.76,41.51-53.01,44.48-84.05,2.89-30.35-27.38-63.62-27.38-94.96s30.27-64.62,27.38-94.97c-2.97-31.02-38.67-54.29-44.48-84.06-5.9-30.25,17.15-71.72,8.5-100.46-8.76-29.07-47.86-40.83-59.23-68.07-11.47-27.46,2.99-74.71-10.93-100.09-13.98-25.46-54.19-25.09-70.44-48.22-16.28-23.15-11.17-73.39-29.54-93.91-18.35-20.49-57.31-8.08-77.53-25.7-20.14-17.55-24.67-67.88-46.46-82.32-21.63-14.33-57.09,9.47-80.15-1.57-22.8-10.9-36.79-58.4-60.82-65.83-23.62-7.31-53.49,26.53-78.08,22.82-24.09-3.66-46.71-45.54-71.56-45.54s-47.48,41.89-71.57,45.54c-24.61,3.71-54.47-30.13-78.09-22.82-24.01,7.43-38.01,54.93-60.81,65.83-23.07,11.03-58.53-12.75-80.16,1.57-21.79,14.45-26.32,64.77-46.46,82.33-20.21,17.62-59.18,5.21-77.53,25.7-18.37,20.54-13.25,70.77-29.54,93.92-16.26,23.12-56.45,22.75-70.44,48.22-13.91,25.37,.55,72.62-10.92,100.08-11.36,27.25-50.48,39-59.22,68.08-8.65,28.72,14.39,70.2,8.49,100.46-5.8,29.76-41.51,53.03-44.48,84.05-2.89,30.35,27.37,63.64,27.37,94.97Z"/><path class="cls-13" d="M1359.81,1428.06c-67.35-23.36-400.63-87.57-400.63-389.81l-106.31,50.55-106.3-50.55c0,302.25-333.28,366.45-400.63,389.81-89.62,31.08-98.76,341.1-98.76,341.1H1458.57s-9.14-310.02-98.76-341.1Z"/><path class="cls-7" d="M848.52,1510.59c202.77,0,527.57-76.89,511.28-82.53-67.35-23.36-400.63-87.57-400.63-389.81l-106.31,50.55-106.3-50.55c0,302.25-333.28,366.45-400.63,389.81-15.48,5.36,297.31,82.53,502.59,82.53Z"/><path class="cls-9" d="M951.08,1042.09l-98.2,46.7-98.21-46.7c-2.93,10.84-6.16,21.28-9.68,31.32-5.74,63.12-26.78,114.82-56.57,157.3,47.5,33.38,103.89,52.8,164.46,52.8s116.96-19.42,164.45-52.8c-29.78-42.47-50.83-94.18-56.57-157.3-3.52-10.04-6.76-20.48-9.68-31.32Z"/><path class="cls-7" d="M580.93,711.66s-15.74-49-46.29-32.59c-30.55,16.41-14.31,206.59,30.13,228.59,44.44,22,55.3-37.41,55.3-37.41l-39.14-158.59Z"/><path class="cls-7" d="M1134.35,711.66s15.74-49,46.29-32.59c30.55,16.41,14.31,206.59-30.14,228.59-44.43,22-55.29-37.41-55.29-37.41l39.14-158.59Z"/><path class="cls-4" d="M1139.55,701.61c-3.48-242.93-102.15-353.15-283.01-353.09-180.86-.05-279.52,110.17-283.01,353.09-3.49,242.93,56.1,318.72,175.33,411.03,99.65,64.78,141.97,34.12,205.35,0,109.25-61.62,188.83-168.1,185.33-411.03Z"/><path class="cls-10" d="M970.58,952.91l-114.47,20.95-129.6-14.4s47.83,45.82,130.91,45.82,113.16-52.36,113.16-52.36Z"/><path class="cls-12" d="M924.99,624.44s6.19,18.58,30.95,14.45c24.76-4.13,90.79-27.69,130.01,.6,0,0-41.27-68.7-160.96-15.05Z"/><path class="cls-12" d="M790.08,624.44s-6.19,18.58-30.96,14.45c-24.75-4.13-90.79-27.69-130.01,.6-3.2,5.32,29.4-74.02,160.97-15.05Z"/><path class="cls-12" d="M675.54,684.55c20.12-8.51,79.65-30.13,107.93,25.17-8.35-14.63-31.23-25.17-58.22-25.17s-49.88,10.54-58.23,25.18c0,0-19.35-1.96-24.76-25.18,0,0,13.16,8.52,33.28,0Z"/><g><path class="cls-11" d="M862.02,886.03s22.17-34.02,44.05-12.25c0,0,.3,9.74-19.53,8,0,0-8.64-3.82-24.52,4.25Z"/><path class="cls-11" d="M841.8,885.74s-24-35.34-44.77-14.8c0,0,.21,9.74,19.98,9.14,0,0,8.45-3.34,24.79,5.66Z"/></g><path class="cls-8" d="M866.75,946.48s-4.13,1.82-10.2,2.06c-6.07-.24-10.19-2.06-10.19-2.06-38.02-15.17-81.47,3.16-119.84,12.98,68.73,11.13,99.68,18.3,130.03,18.87,30.35-.57,75.72-7.09,114.04-25.42-34.91-3.5-57.74-17.02-103.84-6.43Z"/><g><path class="cls-2" d="M521.49,897.94c0,14.82,12.01,26.83,26.83,26.83s26.84-12.01,26.84-26.83-12.01-26.84-26.84-26.84-26.83,12.02-26.83,26.84Z"/><path class="cls-2" d="M1137.29,897.94c0,14.82,12.02,26.83,26.84,26.83s26.83-12.01,26.83-26.83-12.01-26.84-26.83-26.84-26.84,12.02-26.84,26.84Z"/></g></g><g><path class="cls-5" d="M698.76,705.71c0-8.26,4.16-15.54,10.5-19.88-19.78,3.22-35.59,12.26-42.23,23.9,14.28,9.31,24.72,13.19,40.49,14.54-5.35-4.41-8.75-11.09-8.75-18.57Z"/><path class="cls-5" d="M746.9,705.71c0,7.66-3.58,14.47-9.15,18.88,19.41-1.06,31.89-5.07,45.72-14.86-7.31-12.81-25.74-22.48-48.32-24.7,7.03,4.2,11.75,11.89,11.75,20.67Z"/><path class="cls-15" d="M737.75,724.58c5.57-4.41,9.15-11.22,9.15-18.88,0-8.79-4.71-16.47-11.75-20.67-3.22-.32-6.53-.48-9.9-.48-5.54,0-10.9,.45-16,1.28-6.34,4.34-10.5,11.62-10.5,19.88,0,7.47,3.41,14.15,8.75,18.57,5.22,.45,11.02,.62,17.74,.62,4.49,0,8.62-.1,12.49-.31Z"/></g><path class="cls-12" d="M1030.19,684.55c-20.12-8.51-79.65-30.13-107.93,25.17,8.35-14.63,31.23-25.17,58.22-25.17s49.88,10.54,58.23,25.18c0,0,19.35-1.96,24.76-25.18,0,0-13.16,8.52-33.28,0Z"/><g><path class="cls-5" d="M1006.97,705.71c0-8.26-4.16-15.54-10.5-19.88,19.78,3.22,35.59,12.26,42.23,23.9-14.28,9.31-24.72,13.19-40.49,14.54,5.35-4.41,8.75-11.09,8.75-18.57Z"/><path class="cls-5" d="M958.84,705.71c0,7.66,3.58,14.47,9.15,18.88-19.41-1.06-31.89-5.07-45.72-14.86,7.31-12.81,25.74-22.48,48.32-24.7-7.03,4.2-11.75,11.89-11.75,20.67Z"/><path class="cls-15" d="M967.99,724.58c-5.57-4.41-9.15-11.22-9.15-18.88,0-8.79,4.71-16.47,11.75-20.67,3.22-.32,6.53-.48,9.9-.48,5.54,0,10.9,.45,16,1.28,6.34,4.34,10.5,11.62,10.5,19.88,0,7.47-3.41,14.15-8.75,18.57-5.22,.45-11.02,.62-17.74,.62-4.49,0-8.62-.1-12.49-.31Z"/></g><g><path class="cls-14" d="M673.05,549.2c21.79-14.45,26.33-64.78,46.46-82.34,20.22-17.62,59.17-5.21,77.53-25.7,18.37-20.52,13.26-70.75,29.54-93.91,2.84-4.04,6.42-7.35,10.46-10.22-134.71,4.99-319.98,83.08-263.13,348.8,2.85-2.69,25.1-96.65,28.24-98.15,23.06-11.03,49.27-24.15,70.9-38.48Z"/><path class="cls-14" d="M837.04,337.03c.88,7.46,46.02,14.91,49.15,20.63,13.99,25.48,54.18,25.1,70.44,48.23,16.28,23.15,11.17,73.39,29.54,93.92,18.34,20.49,57.32,8.07,77.53,25.69,20.14,17.55,24.68,67.9,46.46,82.34,6.08,4.03,21.33,78.38,29.01,78,61.22-274.88-158.32-339.21-302.15-348.8Z"/></g></g></svg>