<?xml version="1.0" encoding="UTF-8"?><svg id="Layer_2" xmlns="http://www.w3.org/2000/svg" xmlns:xlink="http://www.w3.org/1999/xlink" viewBox="0 0 1697.06 1697.06"><defs><style>.cls-1,.cls-2,.cls-3{fill:none;}.cls-2{stroke:#df8a63;stroke-linecap:round;}.cls-2,.cls-3,.cls-4{stroke-miterlimit:10;stroke-width:3px;}.cls-3{stroke:#060a0d;}.cls-5{clip-path:url(#clippath);}.cls-6{fill:#f4a47d;}.cls-7{fill:#ec4241;}.cls-8,.cls-4{fill:#fef4f3;}.cls-9{fill:#ee8726;}.cls-10{fill:#f15e5c;}.cls-11{fill:#684f1f;}.cls-12{fill:#df8a64;}.cls-13{fill:#d47b56;}.cls-14{fill:#c86e47;}.cls-15{fill:#110b37;}.cls-16{fill:#3c2415;}.cls-17{fill:#385e2c;}.cls-18{fill:#5faf46;}.cls-19{fill:#7c4b1b;}.cls-4{stroke:#231f20;}</style><clipPath id="clippath"><path class="cls-1" d="M0,848.52c0,468.63,379.89,848.54,848.52,848.54s848.54-379.91,848.54-848.54S1317.16,0,848.52,0,0,379.89,0,848.52"/></clipPath></defs><g id="kasia"><g class="cls-5"><circle class="cls-9" cx="848.53" cy="848.52" r="848.53" transform="translate(-351.47 848.53) rotate(-45)"/><path class="cls-19" d="M1697.06,1603.68s-306.11-345.06-331.52-904.27c-19.55-429.98-357.28-529.45-402.43-540.76,0,0-13.84-43.4-137.74-34.8-298.66,20.72-640.62,385.92-525.42,1448.9l1397.12,30.93Z"/><path class="cls-18" d="M1369.39,1362.52c-67.37-23.35-400.64-87.57-400.64-389.82l-106.3,50.56-106.31-50.56c0,302.25-333.27,366.46-400.64,389.82-89.62,31.08-98.76,341.11-98.76,341.11H1468.15s-9.15-310.03-98.76-341.11Z"/><path class="cls-12" d="M610.65,1252.36c69.19,40.37,156.65,64.49,251.8,64.49s182.6-24.13,251.79-64.49c-79.32-57.61-145.49-144.99-145.49-279.66l-106.3,50.56-106.31-50.56c0,134.67-66.16,222.05-145.48,279.66Z"/><path class="cls-17" d="M866.43,1400.62c-137.29,0-268.65-27.42-383.83-79.68-5.95,2.35-11.81,4.59-17.57,6.72,119.76,56.67,257.4,86.45,401.39,86.45s278.89-29.22,397.87-84.81c-5.82-2.11-11.75-4.34-17.79-6.69-114.32,51.17-244.39,78.02-380.09,78.02Z"/><path class="cls-13" d="M960.65,976.56l-98.2,46.7-98.2-46.7c-2.94,10.84-6.17,21.28-9.69,31.31-5.74,63.13-26.78,114.83-56.57,157.3,47.49,33.38,103.91,52.8,164.47,52.8s116.96-19.42,164.46-52.8c-29.78-42.48-50.85-94.17-56.57-157.3-3.52-10.04-6.76-20.48-9.69-31.31Z"/><path class="cls-6" d="M1159.13,636.07c-3.49-242.92-122.72-350.81-296.23-309.24-183.87-34.69-289.8,66.3-289.8,309.24,0,376.39,148.45,425.52,247.3,475.42,3.44,1.74,7.27,3.25,11.22,4.57,23.63,7.88,49.29,7.88,72.92,0,3.95-1.32,7.77-2.83,11.22-4.57,98.86-49.9,243.38-67.62,243.38-475.42Z"/><g><path class="cls-4" d="M684.51,667.84l-.58-1.2c7.28-12.77,27.81-20.76,51.36-20.76,23.56,0,66.16,14.32,73.44,27.09,0,0-10.35-3.77-21.13,0s-44.31,17.02-63.79,12.28c-19.48-4.75-23.67-5.51-39.3-17.41Z"/><path class="cls-11" d="M760.01,647.7c5.68,4.87,9.29,12.07,9.29,20.13s-.42,9.53-6.11,14.38c-5.54,1.18-15.7,4.27-21.91,4.27-5.71,0-15.05-1.24-20.95-3.71-3.37-6.46-4.01-6.73-4.01-14.94,0-8.2,3.73-15.55,9.6-20.4,5.16-1,10.65-1.55,16.36-1.55,6.22,0,12.17,.65,17.71,1.82Z"/><path class="cls-3" d="M684.51,667.84l-.58-1.2c7.28-12.77,27.81-20.76,51.36-20.76,23.56,0,66.16,14.32,73.44,27.09,0,0-10.35-3.77-21.13,0s-44.31,17.02-63.79,12.28c-19.48-4.75-21.3-6.11-39.3-17.41Z"/><path class="cls-15" d="M689.81,650.42c17.55-7.43,90.36-18.62,121.54,24.3-8.64-11.89-52.5-28.84-76.05-28.84-23.56,0-43.51,9.18-50.78,21.95,0,0-16.87-1.7-21.6-21.95,0,0,9.35,11.96,26.9,4.54Z"/></g><g><path class="cls-4" d="M1079.75,667.84l.58-1.2c-7.28-12.77-27.81-20.76-51.36-20.76s-66.16,14.32-73.44,27.09c0,0,10.35-3.77,21.13,0,10.78,3.77,44.31,17.02,63.79,12.28,19.48-4.75,23.67-5.51,39.3-17.41Z"/><path class="cls-11" d="M1004.25,647.7c-5.68,4.87-9.29,12.07-9.29,20.13,0,8.06,.42,9.53,6.11,14.38,5.54,1.18,15.7,4.27,21.91,4.27,5.71,0,15.05-1.24,20.95-3.71,3.37-6.46,4.01-6.73,4.01-14.94s-3.73-15.55-9.6-20.4c-5.16-1-10.65-1.55-16.36-1.55-6.22,0-12.17,.65-17.71,1.82Z"/><path class="cls-3" d="M1079.75,667.84l.58-1.2c-7.28-12.77-27.81-20.76-51.36-20.76s-66.16,14.32-73.44,27.09c0,0,10.35-3.77,21.13,0,10.78,3.77,44.31,17.02,63.79,12.28,19.48-4.75,21.3-6.11,39.3-17.41Z"/><path class="cls-15" d="M1074.45,650.42c-17.55-7.43-90.36-18.62-121.54,24.3,8.64-11.89,52.5-28.84,76.05-28.84s43.51,9.18,50.78,21.95c0,0,16.87-1.7,21.6-21.95,0,0-9.35,11.96-26.9,4.54Z"/></g><path class="cls-19" d="M946.98,597.61c-11.26,8.34-2.65,26.08,10.88,22.44,.24-.06,.48-.13,.72-.2,97.69-27.88,90.16-98.28,182.12-38.68,5.06,3.28-47.23-92.03-193.72,16.43Z"/><path class="cls-19" d="M805.83,597.61c11.26,8.34,2.65,26.08-10.88,22.44-.24-.06-.48-.13-.72-.2-97.69-27.88-90.16-98.28-182.12-38.68-5.06,3.28,47.23-92.03,193.72,16.43Z"/><path class="cls-14" d="M891.59,850.5s22.18-34.02,44.05-12.25c0,0,.3,9.74-19.53,8,0,0-8.64-3.83-24.52,4.25Z"/><path class="cls-14" d="M841.36,850.2s-23.99-35.34-44.76-14.81c0,0,.2,9.74,19.98,9.14,0,0,8.45-3.34,24.78,5.67Z"/><g><path class="cls-10" d="M1008.15,897.26l-142.03,52.18-140.73-52.18s57.32,80.51,140.4,80.51,142.36-80.51,142.36-80.51Z"/><path class="cls-8" d="M866.12,930.21l-92.95-13.96s33.55,32.26,92.95,33.2c59.39-.94,102.83-38.71,102.83-38.71l-102.83,19.47Z"/><path class="cls-7" d="M909,902.83s-36.82,8.94-42.88,9.18c-6.06-.24-33.39-6.24-33.39-6.24-25.21-3.77-107.35-8.51-107.35-8.51,38.37,11.2,59.56,39.93,142.04,39.93s102.36-28.73,140.73-39.93c0,0-73.94,1.79-99.15,5.56Z"/></g></g><path class="cls-2" d="M949.9,784.03s34.69,28.2,0,64.5"/><path class="cls-2" d="M795.31,784.03c-9,7.32-41.69,20.88,0,64.5"/><g id="Layer_3"><path class="cls-16" d="M1174.41,619.08l-.04-.15c-.14-.56-.32-1.11-.54-1.64l-.06-.15c-2.03-4.85-6.11-8.51-12.14-10.9-19.79-7.84-74.48-4.75-116.87-.78-42.07,3.94-93.76,11.05-107.83,17.33-4.1,1.83-7.7,3.53-11.19,5.18-16.8,7.93-26.06,12.3-51.12,12.3-28.01,0-33.42-2.76-56.17-14.37-1.75-.9-3.59-1.83-5.54-2.82-16.67-8.45-69.16-15.55-109.05-19.06-26.81-2.36-91.71-6.92-115.04,1.66-6.7,2.47-11.19,6.32-13.34,11.46l-.06,.15c-.22,.53-.4,1.08-.54,1.64l-.04,.15c-11.77,47.08,8.5,126.05,26.94,145.19,15.24,15.82,37.63,30.79,97.76,33.23,9.81,.4,18.15,.61,25.41,.61,32.14,0,42.92-4.1,64.85-14.03l1.85-.84c25.42-11.5,33.93-24.78,43.77-40.15,1.38-2.15,2.82-4.41,4.39-6.78,4.04-6.11,10.57-17.38,16.25-28.02,2.13-4,3.87-7.37,5.28-10.23,1.95-3.95,6-6.41,10.4-6.34,.77,.01,1.48,.04,2.11,.07l.79,.04,.77-.04c1.21-.07,2.72-.1,4.34-.08,3.68,.05,7.1,1.89,9.2,4.92,2.28,3.29,5.28,7.3,9.24,12.31,7.85,9.94,16.59,20.04,21.76,25.13,5.13,5.06,7.98,8.45,11.29,12.38,5.85,6.95,12.47,14.84,32.33,32.31,15.05,13.25,40.78,19.02,78.73,17.62,52.71-2.14,86.14-12.35,105.2-32.13,18.44-19.14,38.71-98.1,26.94-145.19Zm-333.82,57.41c-.03,1.5-.36,2.97-.97,4.34-3.93,8.94-15.86,30.76-22.36,40.6-1.64,2.48-3.15,4.84-4.6,7.1-9.05,14.13-14.03,21.91-32.16,30.11l-1.87,.85c-22.69,10.28-28.79,13.04-78.02,11.04-27.86-1.13-59.27-4.09-79.41-24.99-3.96-4.11-12.1-22.01-17.79-48.94-4.49-21.23-6.05-41.36-4.6-57.41,.49-5.38,4.69-9.69,10.06-10.28,15.06-1.66,44.14-2.07,88.58,1.66,52.89,4.44,94.03,11.92,103.23,16.59,1.92,.97,3.74,1.9,5.47,2.79,15.9,8.12,20.27,9.96,29.87,17.17,2.94,2.21,4.63,5.7,4.54,9.37h0Zm305.22,20.11c-5.69,26.93-13.83,44.83-17.79,48.94-13.55,14.06-42.77,22.1-86.8,23.89-37.67,1.38-53.33-5.17-59.85-10.91-18.33-16.14-24.01-22.9-29.5-29.43-3.42-4.07-6.96-8.28-12.99-14.23-7.13-7.03-21.4-24.49-27.82-33.67-1.55-2.22-2.26-4.9-2.01-7.6l.28-2.98c.39-4.19,3.06-7.83,6.95-9.45l20.99-8.78c3.36-1.59,6.84-3.23,10.68-4.94,6.92-3.09,47.21-10.34,101.93-15.34,47.83-4.37,75.86-4.24,90.29-2.89,5.47,.51,9.8,4.85,10.28,10.32,1.4,16-.18,35.99-4.63,57.07Z"/></g></g></svg>