<?xml version="1.0" encoding="UTF-8"?><svg id="Layer_2" xmlns="http://www.w3.org/2000/svg" xmlns:xlink="http://www.w3.org/1999/xlink" viewBox="0 0 1697.06 1697.06"><defs><style>.cls-1,.cls-2{fill:none;}.cls-2{stroke:#df8a63;stroke-linecap:round;}.cls-2,.cls-3{stroke-miterlimit:10;stroke-width:3px;}.cls-4{clip-path:url(#clippath);}.cls-5{fill:#f4a47d;}.cls-6{fill:#6769ac;}.cls-7{fill:#ec4241;}.cls-8,.cls-3{fill:#fef4f3;}.cls-9{fill:#f15e5c;}.cls-10{fill:#979ac5;}.cls-11{fill:#df8a64;}.cls-12{fill:#d47b56;}.cls-13{fill:#c86e47;}.cls-14{fill:#decd32;}.cls-15{fill:#110b37;}.cls-16{fill:#93c23e;}.cls-17{fill:#5c2414;}.cls-3{stroke:#231f20;}</style><clipPath id="clippath"><path class="cls-1" d="M0,848.52c0,468.63,379.89,848.54,848.52,848.54s848.54-379.91,848.54-848.54S1317.16,0,848.52,0,0,379.89,0,848.52"/></clipPath></defs><g id="peggy"><g class="cls-4"><circle class="cls-6" cx="848.53" cy="848.52" r="848.53" transform="translate(-351.47 848.53) rotate(-45)"/><path class="cls-15" d="M862.45,1316.86s436.54-129.94,411.12-689.15c-19.55-429.98-265.32-457.75-310.46-469.06,0,0-13.84-43.4-137.74-34.8-298.66,20.72-622.79,486.52-214.7,1241.04l251.8-48.03Z"/><path class="cls-14" d="M1369.39,1362.52c-67.37-23.35-400.64-87.57-400.64-389.82l-106.3,50.56-106.31-50.56c0,302.25-333.27,366.46-400.64,389.82-89.62,31.08-98.76,341.11-98.76,341.11H1468.15s-9.15-310.03-98.76-341.11Z"/><path class="cls-11" d="M610.65,1252.36c69.19,40.37,156.65,64.49,251.8,64.49s182.6-24.13,251.79-64.49c-79.32-57.61-145.49-144.99-145.49-279.66l-106.3,50.56-106.31-50.56c0,134.67-66.16,222.05-145.48,279.66Z"/><path class="cls-16" d="M866.43,1400.62c-137.29,0-268.65-27.42-383.83-79.68-5.95,2.35-11.81,4.59-17.57,6.72,119.76,56.67,257.4,86.45,401.39,86.45s278.89-29.22,397.87-84.81c-5.82-2.11-11.75-4.34-17.79-6.69-114.32,51.17-244.39,78.02-380.09,78.02Z"/><path class="cls-12" d="M960.65,976.56l-98.2,46.7-98.2-46.7c-2.94,10.84-6.17,21.28-9.69,31.31-5.74,63.13-26.78,114.83-56.57,157.3,47.49,33.38,103.91,52.8,164.47,52.8s116.96-19.42,164.46-52.8c-29.78-42.48-50.85-94.17-56.57-157.3-3.52-10.04-6.76-20.48-9.69-31.31Z"/><path class="cls-11" d="M590.5,646.12s-15.74-49-46.29-32.58c-30.55,16.41-14.3,206.59,30.13,228.59,44.45,22.01,55.3-37.4,55.3-37.4l-39.13-158.6Z"/><path class="cls-11" d="M1143.92,646.12s15.74-49,46.29-32.58c30.56,16.41,14.31,206.59-30.13,228.59-44.44,22.01-55.3-37.4-55.3-37.4l39.14-158.6Z"/><path class="cls-5" d="M1159.13,636.07c-3.49-242.92-122.72-350.81-296.23-309.24-183.87-34.69-286.31,66.32-289.8,309.24-3.48,242.94,146.49,401.13,245.34,451.03,18.36,9.27,47.68,12.24,47.68,12.24,0,0,29.32-2.97,47.67-12.24,98.86-49.9,248.83-208.09,245.34-451.03Z"/><path class="cls-9" d="M983.01,894.64l-116.89,25.8-125.94-23.84s42.87,76.1,125.94,76.1,116.89-78.06,116.89-78.06Z"/><path class="cls-8" d="M866.12,901.21l-98.58-3.73s39.18,40.86,98.58,41.8c59.39-.94,98.57-41.8,98.57-41.8l-98.57,3.73Z"/><path class="cls-3" d="M1065.64,667.2h0c-8.34-14.65-31.21-25.17-58.22-25.17s-49.88,10.52-58.22,25.16h0c8.34,14.64,31.21,25.17,58.22,25.17s49.88-10.53,58.22-25.16Z"/><path class="cls-15" d="M1057.13,642.03c-20.12-8.52-79.65-30.14-107.92,25.16,8.35-14.64,31.21-25.16,58.22-25.16s49.88,10.52,58.22,25.16c0,0,19.34-1.95,24.77-25.16,0,0-13.16,8.51-33.28,0Z"/><path class="cls-17" d="M987.12,644.12c-6.51,5.58-10.65,13.83-10.65,23.07s4.14,17.51,10.66,23.07c6.35,1.35,13.18,2.1,20.3,2.1,6.55,0,12.84-.62,18.76-1.78,6.72-5.57,11.01-13.97,11.01-23.39s-4.28-17.83-11.01-23.39c-5.91-1.15-12.21-1.77-18.76-1.77-7.13,0-13.95,.75-20.31,2.09Z"/><path class="cls-15" d="M810.87,569.99s1.19,17.21-23.56,13.09c-24.77-4.14-91.64-45.85-183.6,13.75-5.2,3.37,29.13-115.85,207.16-26.84Z"/><path class="cls-15" d="M810.87,569.99s1.19,17.21-23.56,13.09c-24.77-4.14-91.64-45.85-183.6,13.75-5.2,3.37,29.13-115.85,207.16-26.84Z"/><path class="cls-15" d="M923.23,569.99s-1.19,17.21,23.56,13.09c24.77-4.14,91.64-45.85,183.6,13.75,5.2,3.37-29.13-115.85-207.16-26.84Z"/><path class="cls-3" d="M666.61,667.2h0c8.33-14.65,31.2-25.17,58.21-25.17s49.88,10.52,58.23,25.16h0c-8.35,14.64-31.22,25.17-58.23,25.17s-49.88-10.53-58.21-25.16Z"/><path class="cls-15" d="M675.11,642.03c20.12-8.52,79.65-30.14,107.93,25.16-8.35-14.64-31.22-25.16-58.23-25.16s-49.88,10.52-58.21,25.16c0,0-19.35-1.95-24.77-25.16,0,0,13.15,8.51,33.27,0Z"/><path class="cls-17" d="M745.13,644.12c6.5,5.58,10.65,13.83,10.65,23.07s-4.14,17.51-10.65,23.07c-6.36,1.35-13.19,2.1-20.32,2.1-6.55,0-12.84-.62-18.75-1.78-6.72-5.57-11.02-13.97-11.02-23.39s4.29-17.83,11.02-23.39c5.9-1.15,12.2-1.77,18.75-1.77,7.13,0,13.95,.75,20.32,2.09Z"/><path class="cls-13" d="M891.59,820.5s22.18-34.02,44.05-12.25c0,0,.3,9.74-19.53,8,0,0-8.64-3.83-24.52,4.25Z"/><path class="cls-13" d="M841.36,820.2s-23.99-35.34-44.76-14.81c0,0,.2,9.74,19.98,9.14,0,0,8.45-3.34,24.78,5.67Z"/><path class="cls-7" d="M876.32,880.95s-4.14,1.82-10.2,2.06c-6.06-.24-10.2-2.06-10.2-2.06-25.21-3.77-118.57,15-118.57,15,38.37,11.2,98.41,16.28,128.77,16.85,30.36-.57,78.53-6.96,116.89-18.16,0,0-81.49-17.47-106.69-13.7Z"/><g><path class="cls-10" d="M531.06,832.41c0,14.82,12.02,26.83,26.84,26.83s26.83-12.01,26.83-26.83-12.02-26.84-26.83-26.84-26.84,12.02-26.84,26.84Z"/><path class="cls-10" d="M1146.86,832.41c0,14.82,12.02,26.83,26.84,26.83s26.84-12.01,26.84-26.83-12.02-26.84-26.84-26.84-26.84,12.02-26.84,26.84Z"/></g></g><path class="cls-2" d="M804.32,617.12s30.11,28.8,34.04,51.05c3.93,22.25,0,68.07,0,68.07"/><path class="cls-2" d="M930.1,617.12s-30.11,28.8-34.04,51.05c-3.93,22.25,0,68.07,0,68.07"/></g></svg>