<svg width="82" height="91" viewBox="0 0 82 91" fill="none" xmlns="http://www.w3.org/2000/svg">
<path d="M0 58.5284L39.7526 81.4914L79.95 58.5284L39.981 35.5653L0 58.5284Z" fill="#ADADAD"/>
<path d="M39.7524 88.9551V81.4915L79.9498 58.5284V65.992L39.7524 88.9551Z" fill="#8C8C8C"/>
<path d="M0 65.992V58.5284L39.7526 81.4915V88.9551L0 65.992Z" fill="#999999"/>
<path d="M13.5352 55.2616L39.8245 70.4511L66.4144 55.2616L39.9808 40.084L13.5352 55.2616Z" fill="#F04B38"/>
<path d="M39.8247 75.3871V70.4511L66.4146 55.2616V60.1976L39.8247 75.3871Z" fill="#7A7A7A"/>
<path d="M13.5352 60.1976V55.2616L39.8245 70.4511V75.3871L13.5352 60.1976Z" fill="#848484"/>
<path d="M61.3056 55.4762V26.8618H57.459V55.4762C57.4751 55.6466 57.5372 55.8096 57.6387 55.9481C57.7402 56.0865 57.8775 56.1953 58.036 56.2631C58.451 56.4802 58.9131 56.5938 59.3823 56.5938C59.8515 56.5938 60.3136 56.4802 60.7286 56.2631C60.8817 56.194 61.0136 56.0859 61.1108 55.9497C61.2079 55.8136 61.2669 55.6543 61.2816 55.4881L61.3056 55.4762Z" fill="#686868"/>
<path d="M58.012 26.1226C57.2667 26.5518 57.2787 27.2553 58.012 27.6845C58.427 27.9016 58.8891 28.0152 59.3583 28.0152C59.8275 28.0152 60.2897 27.9016 60.7046 27.6845C60.8647 27.6246 61.0025 27.5178 61.0998 27.3783C61.1971 27.2388 61.2493 27.0732 61.2493 26.9035C61.2493 26.7339 61.1971 26.5683 61.0998 26.4288C61.0025 26.2892 60.8647 26.1824 60.7046 26.1226C60.2873 25.9131 59.8261 25.8039 59.3583 25.8039C58.8905 25.8039 58.4293 25.9131 58.012 26.1226Z" fill="#A0A0A0"/>
<path d="M54.4903 51.6729V23.0585H50.6797V51.6729C50.6959 51.8417 50.7567 52.0033 50.8558 52.1414C50.955 52.2796 51.0891 52.3894 51.2447 52.4598C51.6618 52.677 52.1259 52.7905 52.597 52.7905C53.0681 52.7905 53.5322 52.677 53.9493 52.4598C54.1009 52.3901 54.231 52.2816 54.3261 52.1453C54.4212 52.0091 54.4779 51.8501 54.4903 51.6848V51.6729Z" fill="#686868"/>
<path d="M51.2322 22.3312C51.0667 22.3856 50.9227 22.4903 50.8206 22.6305C50.7185 22.7707 50.6636 22.9392 50.6636 23.1121C50.6636 23.2851 50.7185 23.4536 50.8206 23.5938C50.9227 23.734 51.0667 23.8387 51.2322 23.8931C51.6493 24.1103 52.1134 24.2238 52.5845 24.2238C53.0557 24.2238 53.5197 24.1103 53.9369 23.8931C54.0969 23.8332 54.2348 23.7264 54.3321 23.5869C54.4294 23.4474 54.4815 23.2818 54.4815 23.1121C54.4815 22.9425 54.4294 22.7769 54.3321 22.6373C54.2348 22.4978 54.0969 22.391 53.9369 22.3312C53.518 22.1197 53.0546 22.0095 52.5845 22.0095C52.1145 22.0095 51.6511 22.1197 51.2322 22.3312Z" fill="#A0A0A0"/>
<path d="M47.3856 47.9292V19.3148H43.563V47.9292C43.583 48.0999 43.6464 48.2628 43.7473 48.4026C43.8483 48.5423 43.9834 48.6543 44.14 48.728C44.5568 48.9394 45.0182 49.0496 45.4863 49.0496C45.9544 49.0496 46.4158 48.9394 46.8326 48.728C46.9867 48.6569 47.119 48.5467 47.2161 48.4085C47.3132 48.2703 47.3717 48.109 47.3856 47.9411V47.9292Z" fill="#686868"/>
<path d="M44.1164 18.5755C43.3831 19.0048 43.3831 19.7678 44.1164 20.1493C44.5331 20.3607 44.9946 20.4709 45.4627 20.4709C45.9308 20.4709 46.3922 20.3607 46.809 20.1493C46.9731 20.0918 47.1152 19.9853 47.2156 19.8443C47.3161 19.7034 47.3701 19.535 47.3701 19.3624C47.3701 19.1898 47.3161 19.0215 47.2156 18.8805C47.1152 18.7396 46.9731 18.6331 46.809 18.5755C46.3916 18.366 45.9304 18.2568 45.4627 18.2568C44.9949 18.2568 44.5337 18.366 44.1164 18.5755Z" fill="#A0A0A0"/>
<path d="M40.5943 44.1139V15.4995H36.7837V44.1139C36.8002 44.2841 36.861 44.4471 36.96 44.5871C37.059 44.7271 37.1929 44.8393 37.3487 44.9127C37.7676 45.1242 38.231 45.2344 38.701 45.2344C39.171 45.2344 39.6344 45.1242 40.0533 44.9127C40.2059 44.841 40.3364 44.7304 40.4315 44.592C40.5265 44.4537 40.5827 44.2928 40.5943 44.1258V44.1139Z" fill="#686868"/>
<path d="M37.3362 14.7841C37.1707 14.8385 37.0267 14.9432 36.9246 15.0834C36.8225 15.2236 36.7676 15.3921 36.7676 15.5651C36.7676 15.738 36.8225 15.9065 36.9246 16.0467C37.0267 16.1869 37.1707 16.2916 37.3362 16.346C37.7533 16.5632 38.2174 16.6767 38.6885 16.6767C39.1597 16.6767 39.6237 16.5632 40.0409 16.346C40.2009 16.2862 40.3388 16.1794 40.4361 16.0398C40.5334 15.9003 40.5855 15.7347 40.5855 15.5651C40.5855 15.3954 40.5334 15.2298 40.4361 15.0903C40.3388 14.9508 40.2009 14.844 40.0409 14.7841C39.622 14.5726 39.1586 14.4624 38.6885 14.4624C38.2185 14.4624 37.7551 14.5726 37.3362 14.7841Z" fill="#A0A0A0"/>
<path d="M42.0723 66.2782V37.7114H38.2017V66.3258C38.2179 66.4947 38.2786 66.6563 38.3778 66.7944C38.477 66.9325 38.6111 67.0423 38.7666 67.1127C39.1838 67.33 39.6478 67.4435 40.119 67.4435C40.5901 67.4435 41.0542 67.33 41.4713 67.1127C41.6222 67.0421 41.7516 66.9332 41.8465 66.7972C41.9415 66.6611 41.9986 66.5027 42.0122 66.3378L42.0723 66.2782Z" fill="#777777"/>
<path d="M38.7551 36.9603C38.5896 37.0147 38.4456 37.1194 38.3435 37.2596C38.2415 37.3998 38.1865 37.5683 38.1865 37.7412C38.1865 37.9142 38.2415 38.0827 38.3435 38.2229C38.4456 38.3631 38.5896 38.4678 38.7551 38.5222C39.1723 38.7394 39.6364 38.8529 40.1075 38.8529C40.5786 38.8529 41.0427 38.7394 41.4598 38.5222C41.6199 38.4623 41.7577 38.3555 41.855 38.216C41.9523 38.0765 42.0044 37.9109 42.0044 37.7412C42.0044 37.5716 41.9523 37.406 41.855 37.2664C41.7577 37.1269 41.6199 37.0201 41.4598 36.9603C41.0415 36.7469 40.5779 36.6356 40.1075 36.6356C39.6371 36.6356 39.1735 36.7469 38.7551 36.9603Z" fill="#A0A0A0"/>
<path d="M35.2328 62.4867V33.92H31.4102V62.5344C31.4263 62.7048 31.4884 62.8678 31.5899 63.0063C31.6914 63.1448 31.8286 63.2536 31.9872 63.3213C32.4021 63.5385 32.8643 63.652 33.3335 63.652C33.8027 63.652 34.2648 63.5385 34.6798 63.3213C34.8329 63.2522 34.9648 63.1441 35.0619 63.008C35.1591 62.8718 35.218 62.7125 35.2328 62.5463V62.4867Z" fill="#777777"/>
<path d="M31.9632 33.1331C31.2179 33.5623 31.2299 34.2658 31.9632 34.695C32.3781 34.9121 32.8403 35.0257 33.3095 35.0257C33.7787 35.0257 34.2408 34.9121 34.6558 34.695C34.8158 34.6351 34.9537 34.5283 35.051 34.3888C35.1483 34.2493 35.2004 34.0837 35.2004 33.914C35.2004 33.7444 35.1483 33.5788 35.051 33.4393C34.9537 33.2997 34.8158 33.1929 34.6558 33.1331C34.2385 32.9236 33.7772 32.8144 33.3095 32.8144C32.8417 32.8144 32.3805 32.9236 31.9632 33.1331Z" fill="#A0A0A0"/>
<path d="M28.1167 58.7311V30.1167H24.3062V58.7311C24.3227 58.9013 24.3835 59.0644 24.4825 59.2044C24.5815 59.3444 24.7154 59.4566 24.8711 59.5299C25.29 59.7414 25.7534 59.8517 26.2235 59.8517C26.6935 59.8517 27.1569 59.7414 27.5758 59.5299C27.7276 59.4573 27.8574 59.3463 27.9524 59.2082C28.0473 59.0701 28.104 58.9097 28.1167 58.743V58.7311Z" fill="#777777"/>
<path d="M24.8588 29.3775C24.1135 29.8067 24.1135 30.5101 24.8588 30.9513C25.2777 31.1627 25.7411 31.273 26.2111 31.273C26.6812 31.273 27.1445 31.1627 27.5634 30.9513C27.7275 30.8937 27.8696 30.7872 27.9701 30.6463C28.0706 30.5053 28.1245 30.337 28.1245 30.1644C28.1245 29.9918 28.0706 29.8234 27.9701 29.6825C27.8696 29.5415 27.7275 29.435 27.5634 29.3775C27.1451 29.1641 26.6815 29.0528 26.2111 29.0528C25.7407 29.0528 25.2771 29.1641 24.8588 29.3775Z" fill="#A0A0A0"/>
<path d="M21.3368 54.9397V26.3253H17.5142V54.9397C17.5319 55.1111 17.5944 55.275 17.6956 55.4151C17.7968 55.5552 17.9332 55.6667 18.0912 55.7385C18.5079 55.9499 18.9694 56.0601 19.4375 56.0601C19.9056 56.0601 20.367 55.9499 20.7838 55.7385C20.9378 55.6674 21.0701 55.5572 21.1673 55.419C21.2644 55.2808 21.3229 55.1195 21.3368 54.9516V54.9397Z" fill="#777777"/>
<path d="M18.031 25.586C17.2857 26.0153 17.2978 26.7187 18.031 27.1598C18.4478 27.3712 18.9092 27.4814 19.3774 27.4814C19.8455 27.4814 20.3069 27.3712 20.7237 27.1598C20.8878 27.1023 21.0298 26.9958 21.1303 26.8548C21.2308 26.7139 21.2848 26.5455 21.2848 26.3729C21.2848 26.2003 21.2308 26.032 21.1303 25.891C21.0298 25.7501 20.8878 25.6436 20.7237 25.586C20.3063 25.3765 19.8451 25.2673 19.3774 25.2673C18.9096 25.2673 18.4484 25.3765 18.031 25.586Z" fill="#A0A0A0"/>
<path d="M15.2305 19.2432L43.7076 35.5654L61.7387 25.2642L25.8207 4.67371L15.2305 19.2432Z" fill="#D6D6D6"/>
<path d="M13.9082 21.6635V26.1703L41.0511 41.7413V37.318L13.9082 21.6635Z" fill="#898989"/>
<path d="M41.0508 41.5744L64.7677 28.4475V23.7738L41.0508 37.318V41.5744Z" fill="#9E9E9E"/>
<path d="M66.4025 22.975L53.0234 15.2849L39.9448 38.0333L66.4025 22.975Z" fill="#636363"/>
<path d="M39.9452 38.0333L13.2471 22.7485L26.5901 0L53.0237 15.2849L39.9452 38.0333Z" fill="#2A2A2A"/>
<path opacity="0.8" d="M39.9452 38.0333L13.2471 22.7485L26.5901 0L53.0237 15.2849L39.9452 38.0333Z" fill="#808080"/>
<path d="M56.5935 25.1926L55.74 24.6799L55.5236 24.5607C55.156 24.418 54.7587 24.3673 54.3666 24.4131C53.9746 24.4588 53.6 24.5996 53.2758 24.823C52.3052 25.4509 51.4986 26.298 50.9219 27.2948C50.3452 28.2917 50.0149 29.4099 49.958 30.5578C49.9189 30.9574 49.9821 31.3603 50.1418 31.7292C50.3015 32.0981 50.5525 32.4211 50.8716 32.6681L50.9678 32.7277L52.0256 33.3596L52.2901 32.8827C52.6375 32.7982 52.97 32.6615 53.2758 32.4773C54.241 31.8439 55.0436 30.9954 55.6196 29.9998C56.1956 29.0041 56.5291 27.8887 56.5935 26.7425C56.6005 26.336 56.5312 25.9317 56.3891 25.5503L56.5935 25.1926Z" fill="#AEAEAE"/>
<path d="M50.98 31.1659C51.0387 30.0184 51.3698 28.9009 51.9464 27.9043C52.5229 26.9078 53.3285 26.0604 54.2977 25.4311C56.1249 24.3938 57.6154 25.2641 57.6154 27.3625C57.5511 28.5071 57.2175 29.6208 56.6414 30.6145C56.0653 31.6083 55.2626 32.4545 54.2977 33.0854C52.4706 34.1465 50.98 33.2881 50.98 31.1659Z" fill="#C0C0C0"/>
</svg>
